<?xml version="1.0" encoding="utf-8" standalone="no"?>
<!DOCTYPE svg PUBLIC "-//W3C//DTD SVG 1.1//EN"
  "http://www.w3.org/Graphics/SVG/1.1/DTD/svg11.dtd">
<!-- Created with matplotlib (https://matplotlib.org/) -->
<svg height="345.6pt" version="1.1" viewBox="0 0 460.8 345.6" width="460.8pt" xmlns="http://www.w3.org/2000/svg" xmlns:xlink="http://www.w3.org/1999/xlink">
 <defs>
  <style type="text/css">
*{stroke-linecap:butt;stroke-linejoin:round;}
  </style>
 </defs>
 <g id="figure_1">
  <g id="patch_1">
   <path d="M 0 345.6 
L 460.8 345.6 
L 460.8 0 
L 0 0 
z
" style="fill:#ffffff;"/>
  </g>
  <g id="axes_1">
   <g id="patch_2">
    <path d="M 57.6 307.584 
L 414.72 307.584 
L 414.72 41.472 
L 57.6 41.472 
z
" style="fill:#ffffff;"/>
   </g>
   <g id="PathCollection_1">
    <defs>
     <path d="M 0 1.581139 
C 0.419323 1.581139 0.821528 1.41454 1.118034 1.118034 
C 1.41454 0.821528 1.581139 0.419323 1.581139 0 
C 1.581139 -0.419323 1.41454 -0.821528 1.118034 -1.118034 
C 0.821528 -1.41454 0.419323 -1.581139 0 -1.581139 
C -0.419323 -1.581139 -0.821528 -1.41454 -1.118034 -1.118034 
C -1.41454 -0.821528 -1.581139 -0.419323 -1.581139 0 
C -1.581139 0.419323 -1.41454 0.821528 -1.118034 1.118034 
C -0.821528 1.41454 -0.419323 1.581139 0 1.581139 
z
" id="me4c49909c1" style="stroke:#236fa4;stroke-opacity:0.2;"/>
    </defs>
    <g clip-path="url(#pae076bc43a)">
     <use style="fill:#236fa4;fill-opacity:0.2;stroke:#236fa4;stroke-opacity:0.2;" x="397.458865" xlink:href="#me4c49909c1" y="294.462816"/>
     <use style="fill:#236fa4;fill-opacity:0.2;stroke:#236fa4;stroke-opacity:0.2;" x="74.861135" xlink:href="#me4c49909c1" y="54.593184"/>
     <use style="fill:#236fa4;fill-opacity:0.2;stroke:#236fa4;stroke-opacity:0.2;" x="364.600898" xlink:href="#me4c49909c1" y="281.876251"/>
     <use style="fill:#236fa4;fill-opacity:0.2;stroke:#236fa4;stroke-opacity:0.2;" x="355.871145" xlink:href="#me4c49909c1" y="276.252263"/>
     <use style="fill:#236fa4;fill-opacity:0.2;stroke:#236fa4;stroke-opacity:0.2;" x="225.216031" xlink:href="#me4c49909c1" y="218.342854"/>
     <use style="fill:#236fa4;fill-opacity:0.2;stroke:#236fa4;stroke-opacity:0.2;" x="152.38773" xlink:href="#me4c49909c1" y="172.109151"/>
     <use style="fill:#236fa4;fill-opacity:0.2;stroke:#236fa4;stroke-opacity:0.2;" x="285.21998" xlink:href="#me4c49909c1" y="248.231251"/>
     <use style="fill:#236fa4;fill-opacity:0.2;stroke:#236fa4;stroke-opacity:0.2;" x="278.345713" xlink:href="#me4c49909c1" y="245.054761"/>
     <use style="fill:#236fa4;fill-opacity:0.2;stroke:#236fa4;stroke-opacity:0.2;" x="300.796777" xlink:href="#me4c49909c1" y="255.296836"/>
     <use style="fill:#236fa4;fill-opacity:0.2;stroke:#236fa4;stroke-opacity:0.2;" x="359.005501" xlink:href="#me4c49909c1" y="279.629099"/>
     <use style="fill:#236fa4;fill-opacity:0.2;stroke:#236fa4;stroke-opacity:0.2;" x="147.846774" xlink:href="#me4c49909c1" y="168.646096"/>
     <use style="fill:#236fa4;fill-opacity:0.2;stroke:#236fa4;stroke-opacity:0.2;" x="259.521614" xlink:href="#me4c49909c1" y="235.987641"/>
     <use style="fill:#236fa4;fill-opacity:0.2;stroke:#236fa4;stroke-opacity:0.2;" x="216.510418" xlink:href="#me4c49909c1" y="213.507872"/>
     <use style="fill:#236fa4;fill-opacity:0.2;stroke:#236fa4;stroke-opacity:0.2;" x="289.278544" xlink:href="#me4c49909c1" y="250.139692"/>
     <use style="fill:#236fa4;fill-opacity:0.2;stroke:#236fa4;stroke-opacity:0.2;" x="104.890618" xlink:href="#me4c49909c1" y="127.770961"/>
     <use style="fill:#236fa4;fill-opacity:0.2;stroke:#236fa4;stroke-opacity:0.2;" x="372.80538" xlink:href="#me4c49909c1" y="285.100431"/>
     <use style="fill:#236fa4;fill-opacity:0.2;stroke:#236fa4;stroke-opacity:0.2;" x="221.804737" xlink:href="#me4c49909c1" y="216.176855"/>
     <use style="fill:#236fa4;fill-opacity:0.2;stroke:#236fa4;stroke-opacity:0.2;" x="156.698303" xlink:href="#me4c49909c1" y="175.388181"/>
     <use style="fill:#236fa4;fill-opacity:0.2;stroke:#236fa4;stroke-opacity:0.2;" x="129.746036" xlink:href="#me4c49909c1" y="153.453175"/>
     <use style="fill:#236fa4;fill-opacity:0.2;stroke:#236fa4;stroke-opacity:0.2;" x="81.240099" xlink:href="#me4c49909c1" y="88.265707"/>
     <use style="fill:#236fa4;fill-opacity:0.2;stroke:#236fa4;stroke-opacity:0.2;" x="100.994494" xlink:href="#me4c49909c1" y="122.863021"/>
     <use style="fill:#236fa4;fill-opacity:0.2;stroke:#236fa4;stroke-opacity:0.2;" x="266.676145" xlink:href="#me4c49909c1" y="239.545784"/>
     <use style="fill:#236fa4;fill-opacity:0.2;stroke:#236fa4;stroke-opacity:0.2;" x="389.693466" xlink:href="#me4c49909c1" y="291.185831"/>
     <use style="fill:#236fa4;fill-opacity:0.2;stroke:#236fa4;stroke-opacity:0.2;" x="94.773281" xlink:href="#me4c49909c1" y="114.21048"/>
     <use style="fill:#236fa4;fill-opacity:0.2;stroke:#236fa4;stroke-opacity:0.2;" x="147.178004" xlink:href="#me4c49909c1" y="163.901358"/>
     <use style="fill:#236fa4;fill-opacity:0.2;stroke:#236fa4;stroke-opacity:0.2;" x="191.688127" xlink:href="#me4c49909c1" y="198.965914"/>
     <use style="fill:#236fa4;fill-opacity:0.2;stroke:#236fa4;stroke-opacity:0.2;" x="212.354451" xlink:href="#me4c49909c1" y="211.157651"/>
     <use style="fill:#236fa4;fill-opacity:0.2;stroke:#236fa4;stroke-opacity:0.2;" x="97.426837" xlink:href="#me4c49909c1" y="117.989416"/>
     <use style="fill:#236fa4;fill-opacity:0.2;stroke:#236fa4;stroke-opacity:0.2;" x="187.797172" xlink:href="#me4c49909c1" y="196.426193"/>
     <use style="fill:#236fa4;fill-opacity:0.2;stroke:#236fa4;stroke-opacity:0.2;" x="176.619109" xlink:href="#me4c49909c1" y="189.016918"/>
     <use style="fill:#236fa4;fill-opacity:0.2;stroke:#236fa4;stroke-opacity:0.2;" x="83.499216" xlink:href="#me4c49909c1" y="93.692132"/>
     <use style="fill:#236fa4;fill-opacity:0.2;stroke:#236fa4;stroke-opacity:0.2;" x="232.028378" xlink:href="#me4c49909c1" y="221.994293"/>
     <use style="fill:#236fa4;fill-opacity:0.2;stroke:#236fa4;stroke-opacity:0.2;" x="89.143802" xlink:href="#me4c49909c1" y="104.907573"/>
     <use style="fill:#236fa4;fill-opacity:0.2;stroke:#236fa4;stroke-opacity:0.2;" x="381.466431" xlink:href="#me4c49909c1" y="288.382771"/>
     <use style="fill:#236fa4;fill-opacity:0.2;stroke:#236fa4;stroke-opacity:0.2;" x="329.707148" xlink:href="#me4c49909c1" y="267.667611"/>
     <use style="fill:#236fa4;fill-opacity:0.2;stroke:#236fa4;stroke-opacity:0.2;" x="122.699805" xlink:href="#me4c49909c1" y="147.006303"/>
     <use style="fill:#236fa4;fill-opacity:0.2;stroke:#236fa4;stroke-opacity:0.2;" x="319.430804" xlink:href="#me4c49909c1" y="262.503365"/>
     <use style="fill:#236fa4;fill-opacity:0.2;stroke:#236fa4;stroke-opacity:0.2;" x="75.165372" xlink:href="#me4c49909c1" y="61.934634"/>
     <use style="fill:#236fa4;fill-opacity:0.2;stroke:#236fa4;stroke-opacity:0.2;" x="397.099928" xlink:href="#me4c49909c1" y="294.264157"/>
     <use style="fill:#236fa4;fill-opacity:0.2;stroke:#236fa4;stroke-opacity:0.2;" x="325.173807" xlink:href="#me4c49909c1" y="265.83808"/>
     <use style="fill:#236fa4;fill-opacity:0.2;stroke:#236fa4;stroke-opacity:0.2;" x="346.933853" xlink:href="#me4c49909c1" y="274.818335"/>
     <use style="fill:#236fa4;fill-opacity:0.2;stroke:#236fa4;stroke-opacity:0.2;" x="387.628692" xlink:href="#me4c49909c1" y="290.73325"/>
     <use style="fill:#236fa4;fill-opacity:0.2;stroke:#236fa4;stroke-opacity:0.2;" x="117.134569" xlink:href="#me4c49909c1" y="141.340928"/>
     <use style="fill:#236fa4;fill-opacity:0.2;stroke:#236fa4;stroke-opacity:0.2;" x="184.375137" xlink:href="#me4c49909c1" y="194.27578"/>
     <use style="fill:#236fa4;fill-opacity:0.2;stroke:#236fa4;stroke-opacity:0.2;" x="173.189444" xlink:href="#me4c49909c1" y="187.043144"/>
     <use style="fill:#236fa4;fill-opacity:0.2;stroke:#236fa4;stroke-opacity:0.2;" x="339.696194" xlink:href="#me4c49909c1" y="271.857957"/>
     <use style="fill:#236fa4;fill-opacity:0.2;stroke:#236fa4;stroke-opacity:0.2;" x="114.767683" xlink:href="#me4c49909c1" y="138.913898"/>
     <use style="fill:#236fa4;fill-opacity:0.2;stroke:#236fa4;stroke-opacity:0.2;" x="312.704413" xlink:href="#me4c49909c1" y="259.64206"/>
     <use style="fill:#236fa4;fill-opacity:0.2;stroke:#236fa4;stroke-opacity:0.2;" x="78.616545" xlink:href="#me4c49909c1" y="80.380894"/>
     <use style="fill:#236fa4;fill-opacity:0.2;stroke:#236fa4;stroke-opacity:0.2;" x="77.267964" xlink:href="#me4c49909c1" y="75.361898"/>
     <use style="fill:#236fa4;fill-opacity:0.2;stroke:#236fa4;stroke-opacity:0.2;" x="141.512662" xlink:href="#me4c49909c1" y="163.011185"/>
     <use style="fill:#236fa4;fill-opacity:0.2;stroke:#236fa4;stroke-opacity:0.2;" x="86.599351" xlink:href="#me4c49909c1" y="100.23647"/>
     <use style="fill:#236fa4;fill-opacity:0.2;stroke:#236fa4;stroke-opacity:0.2;" x="295.233662" xlink:href="#me4c49909c1" y="252.786962"/>
     <use style="fill:#236fa4;fill-opacity:0.2;stroke:#236fa4;stroke-opacity:0.2;" x="170.270556" xlink:href="#me4c49909c1" y="185.058443"/>
     <use style="fill:#236fa4;fill-opacity:0.2;stroke:#236fa4;stroke-opacity:0.2;" x="314.095655" xlink:href="#me4c49909c1" y="261.108846"/>
     <use style="fill:#236fa4;fill-opacity:0.2;stroke:#236fa4;stroke-opacity:0.2;" x="90.252557" xlink:href="#me4c49909c1" y="106.925376"/>
     <use style="fill:#236fa4;fill-opacity:0.2;stroke:#236fa4;stroke-opacity:0.2;" x="208.777899" xlink:href="#me4c49909c1" y="209.054383"/>
     <use style="fill:#236fa4;fill-opacity:0.2;stroke:#236fa4;stroke-opacity:0.2;" x="323.303178" xlink:href="#me4c49909c1" y="263.457662"/>
     <use style="fill:#236fa4;fill-opacity:0.2;stroke:#236fa4;stroke-opacity:0.2;" x="237.944518" xlink:href="#me4c49909c1" y="224.871764"/>
     <use style="fill:#236fa4;fill-opacity:0.2;stroke:#236fa4;stroke-opacity:0.2;" x="334.727334" xlink:href="#me4c49909c1" y="269.816533"/>
     <use style="fill:#236fa4;fill-opacity:0.2;stroke:#236fa4;stroke-opacity:0.2;" x="196.900893" xlink:href="#me4c49909c1" y="202.030163"/>
     <use style="fill:#236fa4;fill-opacity:0.2;stroke:#236fa4;stroke-opacity:0.2;" x="99.539745" xlink:href="#me4c49909c1" y="120.859945"/>
     <use style="fill:#236fa4;fill-opacity:0.2;stroke:#236fa4;stroke-opacity:0.2;" x="80.152862" xlink:href="#me4c49909c1" y="85.154377"/>
     <use style="fill:#236fa4;fill-opacity:0.2;stroke:#236fa4;stroke-opacity:0.2;" x="342.214805" xlink:href="#me4c49909c1" y="272.897418"/>
     <use style="fill:#236fa4;fill-opacity:0.2;stroke:#236fa4;stroke-opacity:0.2;" x="379.574719" xlink:href="#me4c49909c1" y="287.47631"/>
     <use style="fill:#236fa4;fill-opacity:0.2;stroke:#236fa4;stroke-opacity:0.2;" x="374.853336" xlink:href="#me4c49909c1" y="285.874717"/>
     <use style="fill:#236fa4;fill-opacity:0.2;stroke:#236fa4;stroke-opacity:0.2;" x="201.201355" xlink:href="#me4c49909c1" y="204.644362"/>
     <use style="fill:#236fa4;fill-opacity:0.2;stroke:#236fa4;stroke-opacity:0.2;" x="84.347108" xlink:href="#me4c49909c1" y="95.654216"/>
     <use style="fill:#236fa4;fill-opacity:0.2;stroke:#236fa4;stroke-opacity:0.2;" x="126.62061" xlink:href="#me4c49909c1" y="150.548112"/>
     <use style="fill:#236fa4;fill-opacity:0.2;stroke:#236fa4;stroke-opacity:0.2;" x="306.695017" xlink:href="#me4c49909c1" y="257.877642"/>
     <use style="fill:#236fa4;fill-opacity:0.2;stroke:#236fa4;stroke-opacity:0.2;" x="106.953636" xlink:href="#me4c49909c1" y="130.167027"/>
     <use style="fill:#236fa4;fill-opacity:0.2;stroke:#236fa4;stroke-opacity:0.2;" x="75.603166" xlink:href="#me4c49909c1" y="63.103849"/>
     <use style="fill:#236fa4;fill-opacity:0.2;stroke:#236fa4;stroke-opacity:0.2;" x="242.528919" xlink:href="#me4c49909c1" y="227.54241"/>
     <use style="fill:#236fa4;fill-opacity:0.2;stroke:#236fa4;stroke-opacity:0.2;" x="254.048521" xlink:href="#me4c49909c1" y="233.330982"/>
     <use style="fill:#236fa4;fill-opacity:0.2;stroke:#236fa4;stroke-opacity:0.2;" x="112.438736" xlink:href="#me4c49909c1" y="136.422205"/>
     <use style="fill:#236fa4;fill-opacity:0.2;stroke:#236fa4;stroke-opacity:0.2;" x="133.892526" xlink:href="#me4c49909c1" y="157.109685"/>
     <use style="fill:#236fa4;fill-opacity:0.2;stroke:#236fa4;stroke-opacity:0.2;" x="295.973717" xlink:href="#me4c49909c1" y="253.104449"/>
     <use style="fill:#236fa4;fill-opacity:0.2;stroke:#236fa4;stroke-opacity:0.2;" x="76.851084" xlink:href="#me4c49909c1" y="73.397403"/>
     <use style="fill:#236fa4;fill-opacity:0.2;stroke:#236fa4;stroke-opacity:0.2;" x="110.276541" xlink:href="#me4c49909c1" y="131.020835"/>
     <use style="fill:#236fa4;fill-opacity:0.2;stroke:#236fa4;stroke-opacity:0.2;" x="268.266426" xlink:href="#me4c49909c1" y="240.340398"/>
     <use style="fill:#236fa4;fill-opacity:0.2;stroke:#236fa4;stroke-opacity:0.2;" x="86.004345" xlink:href="#me4c49909c1" y="99.175057"/>
     <use style="fill:#236fa4;fill-opacity:0.2;stroke:#236fa4;stroke-opacity:0.2;" x="306.962228" xlink:href="#me4c49909c1" y="258.005758"/>
     <use style="fill:#236fa4;fill-opacity:0.2;stroke:#236fa4;stroke-opacity:0.2;" x="180.553674" xlink:href="#me4c49909c1" y="191.50365"/>
     <use style="fill:#236fa4;fill-opacity:0.2;stroke:#236fa4;stroke-opacity:0.2;" x="274.66832" xlink:href="#me4c49909c1" y="243.269442"/>
     <use style="fill:#236fa4;fill-opacity:0.2;stroke:#236fa4;stroke-opacity:0.2;" x="75.942064" xlink:href="#me4c49909c1" y="68.543522"/>
     <use style="fill:#236fa4;fill-opacity:0.2;stroke:#236fa4;stroke-opacity:0.2;" x="92.377284" xlink:href="#me4c49909c1" y="110.345586"/>
     <use style="fill:#236fa4;fill-opacity:0.2;stroke:#236fa4;stroke-opacity:0.2;" x="79.188614" xlink:href="#me4c49909c1" y="82.275668"/>
     <use style="fill:#236fa4;fill-opacity:0.2;stroke:#236fa4;stroke-opacity:0.2;" x="334.685438" xlink:href="#me4c49909c1" y="268.008888"/>
     <use style="fill:#236fa4;fill-opacity:0.2;stroke:#236fa4;stroke-opacity:0.2;" x="141.150055" xlink:href="#me4c49909c1" y="160.306985"/>
     <use style="fill:#236fa4;fill-opacity:0.2;stroke:#236fa4;stroke-opacity:0.2;" x="236.77528" xlink:href="#me4c49909c1" y="224.239702"/>
     <use style="fill:#236fa4;fill-opacity:0.2;stroke:#236fa4;stroke-opacity:0.2;" x="92.786036" xlink:href="#me4c49909c1" y="111.076525"/>
     <use style="fill:#236fa4;fill-opacity:0.2;stroke:#236fa4;stroke-opacity:0.2;" x="136.313584" xlink:href="#me4c49909c1" y="159.226999"/>
     <use style="fill:#236fa4;fill-opacity:0.2;stroke:#236fa4;stroke-opacity:0.2;" x="204.930077" xlink:href="#me4c49909c1" y="206.858137"/>
     <use style="fill:#236fa4;fill-opacity:0.2;stroke:#236fa4;stroke-opacity:0.2;" x="160.875397" xlink:href="#me4c49909c1" y="178.37035"/>
     <use style="fill:#236fa4;fill-opacity:0.2;stroke:#236fa4;stroke-opacity:0.2;" x="346.193798" xlink:href="#me4c49909c1" y="274.52277"/>
     <use style="fill:#236fa4;fill-opacity:0.2;stroke:#236fa4;stroke-opacity:0.2;" x="251.198271" xlink:href="#me4c49909c1" y="231.922232"/>
     <use style="fill:#236fa4;fill-opacity:0.2;stroke:#236fa4;stroke-opacity:0.2;" x="120.373654" xlink:href="#me4c49909c1" y="143.612686"/>
     <use style="fill:#236fa4;fill-opacity:0.2;stroke:#236fa4;stroke-opacity:0.2;" x="127.576224" xlink:href="#me4c49909c1" y="150.697404"/>
     <use style="fill:#236fa4;fill-opacity:0.2;stroke:#236fa4;stroke-opacity:0.2;" x="159.918253" xlink:href="#me4c49909c1" y="177.739145"/>
     <use style="fill:#236fa4;fill-opacity:0.2;stroke:#236fa4;stroke-opacity:0.2;" x="164.055464" xlink:href="#me4c49909c1" y="180.731907"/>
    </g>
   </g>
   <g id="matplotlib.axis_1">
    <g id="xtick_1">
     <g id="line2d_1">
      <defs>
       <path d="M 0 0 
L 0 3.5 
" id="m29be678a98" style="stroke:#000000;stroke-width:0.8;"/>
      </defs>
      <g>
       <use style="stroke:#000000;stroke-width:0.8;" x="74.861134" xlink:href="#m29be678a98" y="307.584"/>
      </g>
     </g>
     <g id="text_1">
      <!-- 0.0 -->
      <defs>
       <path d="M 31.78125 66.40625 
Q 24.171875 66.40625 20.328125 58.90625 
Q 16.5 51.421875 16.5 36.375 
Q 16.5 21.390625 20.328125 13.890625 
Q 24.171875 6.390625 31.78125 6.390625 
Q 39.453125 6.390625 43.28125 13.890625 
Q 47.125 21.390625 47.125 36.375 
Q 47.125 51.421875 43.28125 58.90625 
Q 39.453125 66.40625 31.78125 66.40625 
z
M 31.78125 74.21875 
Q 44.046875 74.21875 50.515625 64.515625 
Q 56.984375 54.828125 56.984375 36.375 
Q 56.984375 17.96875 50.515625 8.265625 
Q 44.046875 -1.421875 31.78125 -1.421875 
Q 19.53125 -1.421875 13.0625 8.265625 
Q 6.59375 17.96875 6.59375 36.375 
Q 6.59375 54.828125 13.0625 64.515625 
Q 19.53125 74.21875 31.78125 74.21875 
z
" id="DejaVuSans-48"/>
       <path d="M 10.6875 12.40625 
L 21 12.40625 
L 21 0 
L 10.6875 0 
z
" id="DejaVuSans-46"/>
      </defs>
      <g transform="translate(66.909572 322.182437)scale(0.1 -0.1)">
       <use xlink:href="#DejaVuSans-48"/>
       <use x="63.623047" xlink:href="#DejaVuSans-46"/>
       <use x="95.410156" xlink:href="#DejaVuSans-48"/>
      </g>
     </g>
    </g>
    <g id="xtick_2">
     <g id="line2d_2">
      <g>
       <use style="stroke:#000000;stroke-width:0.8;" x="139.382989" xlink:href="#m29be678a98" y="307.584"/>
      </g>
     </g>
     <g id="text_2">
      <!-- 0.2 -->
      <defs>
       <path d="M 19.1875 8.296875 
L 53.609375 8.296875 
L 53.609375 0 
L 7.328125 0 
L 7.328125 8.296875 
Q 12.9375 14.109375 22.625 23.890625 
Q 32.328125 33.6875 34.8125 36.53125 
Q 39.546875 41.84375 41.421875 45.53125 
Q 43.3125 49.21875 43.3125 52.78125 
Q 43.3125 58.59375 39.234375 62.25 
Q 35.15625 65.921875 28.609375 65.921875 
Q 23.96875 65.921875 18.8125 64.3125 
Q 13.671875 62.703125 7.8125 59.421875 
L 7.8125 69.390625 
Q 13.765625 71.78125 18.9375 73 
Q 24.125 74.21875 28.421875 74.21875 
Q 39.75 74.21875 46.484375 68.546875 
Q 53.21875 62.890625 53.21875 53.421875 
Q 53.21875 48.921875 51.53125 44.890625 
Q 49.859375 40.875 45.40625 35.40625 
Q 44.1875 33.984375 37.640625 27.21875 
Q 31.109375 20.453125 19.1875 8.296875 
z
" id="DejaVuSans-50"/>
      </defs>
      <g transform="translate(131.431427 322.182437)scale(0.1 -0.1)">
       <use xlink:href="#DejaVuSans-48"/>
       <use x="63.623047" xlink:href="#DejaVuSans-46"/>
       <use x="95.410156" xlink:href="#DejaVuSans-50"/>
      </g>
     </g>
    </g>
    <g id="xtick_3">
     <g id="line2d_3">
      <g>
       <use style="stroke:#000000;stroke-width:0.8;" x="203.904845" xlink:href="#m29be678a98" y="307.584"/>
      </g>
     </g>
     <g id="text_3">
      <!-- 0.4 -->
      <defs>
       <path d="M 37.796875 64.3125 
L 12.890625 25.390625 
L 37.796875 25.390625 
z
M 35.203125 72.90625 
L 47.609375 72.90625 
L 47.609375 25.390625 
L 58.015625 25.390625 
L 58.015625 17.1875 
L 47.609375 17.1875 
L 47.609375 0 
L 37.796875 0 
L 37.796875 17.1875 
L 4.890625 17.1875 
L 4.890625 26.703125 
z
" id="DejaVuSans-52"/>
      </defs>
      <g transform="translate(195.953282 322.182437)scale(0.1 -0.1)">
       <use xlink:href="#DejaVuSans-48"/>
       <use x="63.623047" xlink:href="#DejaVuSans-46"/>
       <use x="95.410156" xlink:href="#DejaVuSans-52"/>
      </g>
     </g>
    </g>
    <g id="xtick_4">
     <g id="line2d_4">
      <g>
       <use style="stroke:#000000;stroke-width:0.8;" x="268.4267" xlink:href="#m29be678a98" y="307.584"/>
      </g>
     </g>
     <g id="text_4">
      <!-- 0.6 -->
      <defs>
       <path d="M 33.015625 40.375 
Q 26.375 40.375 22.484375 35.828125 
Q 18.609375 31.296875 18.609375 23.390625 
Q 18.609375 15.53125 22.484375 10.953125 
Q 26.375 6.390625 33.015625 6.390625 
Q 39.65625 6.390625 43.53125 10.953125 
Q 47.40625 15.53125 47.40625 23.390625 
Q 47.40625 31.296875 43.53125 35.828125 
Q 39.65625 40.375 33.015625 40.375 
z
M 52.59375 71.296875 
L 52.59375 62.3125 
Q 48.875 64.0625 45.09375 64.984375 
Q 41.3125 65.921875 37.59375 65.921875 
Q 27.828125 65.921875 22.671875 59.328125 
Q 17.53125 52.734375 16.796875 39.40625 
Q 19.671875 43.65625 24.015625 45.921875 
Q 28.375 48.1875 33.59375 48.1875 
Q 44.578125 48.1875 50.953125 41.515625 
Q 57.328125 34.859375 57.328125 23.390625 
Q 57.328125 12.15625 50.6875 5.359375 
Q 44.046875 -1.421875 33.015625 -1.421875 
Q 20.359375 -1.421875 13.671875 8.265625 
Q 6.984375 17.96875 6.984375 36.375 
Q 6.984375 53.65625 15.1875 63.9375 
Q 23.390625 74.21875 37.203125 74.21875 
Q 40.921875 74.21875 44.703125 73.484375 
Q 48.484375 72.75 52.59375 71.296875 
z
" id="DejaVuSans-54"/>
      </defs>
      <g transform="translate(260.475138 322.182437)scale(0.1 -0.1)">
       <use xlink:href="#DejaVuSans-48"/>
       <use x="63.623047" xlink:href="#DejaVuSans-46"/>
       <use x="95.410156" xlink:href="#DejaVuSans-54"/>
      </g>
     </g>
    </g>
    <g id="xtick_5">
     <g id="line2d_5">
      <g>
       <use style="stroke:#000000;stroke-width:0.8;" x="332.948555" xlink:href="#m29be678a98" y="307.584"/>
      </g>
     </g>
     <g id="text_5">
      <!-- 0.8 -->
      <defs>
       <path d="M 31.78125 34.625 
Q 24.75 34.625 20.71875 30.859375 
Q 16.703125 27.09375 16.703125 20.515625 
Q 16.703125 13.921875 20.71875 10.15625 
Q 24.75 6.390625 31.78125 6.390625 
Q 38.8125 6.390625 42.859375 10.171875 
Q 46.921875 13.96875 46.921875 20.515625 
Q 46.921875 27.09375 42.890625 30.859375 
Q 38.875 34.625 31.78125 34.625 
z
M 21.921875 38.8125 
Q 15.578125 40.375 12.03125 44.71875 
Q 8.5 49.078125 8.5 55.328125 
Q 8.5 64.0625 14.71875 69.140625 
Q 20.953125 74.21875 31.78125 74.21875 
Q 42.671875 74.21875 48.875 69.140625 
Q 55.078125 64.0625 55.078125 55.328125 
Q 55.078125 49.078125 51.53125 44.71875 
Q 48 40.375 41.703125 38.8125 
Q 48.828125 37.15625 52.796875 32.3125 
Q 56.78125 27.484375 56.78125 20.515625 
Q 56.78125 9.90625 50.3125 4.234375 
Q 43.84375 -1.421875 31.78125 -1.421875 
Q 19.734375 -1.421875 13.25 4.234375 
Q 6.78125 9.90625 6.78125 20.515625 
Q 6.78125 27.484375 10.78125 32.3125 
Q 14.796875 37.15625 21.921875 38.8125 
z
M 18.3125 54.390625 
Q 18.3125 48.734375 21.84375 45.5625 
Q 25.390625 42.390625 31.78125 42.390625 
Q 38.140625 42.390625 41.71875 45.5625 
Q 45.3125 48.734375 45.3125 54.390625 
Q 45.3125 60.0625 41.71875 63.234375 
Q 38.140625 66.40625 31.78125 66.40625 
Q 25.390625 66.40625 21.84375 63.234375 
Q 18.3125 60.0625 18.3125 54.390625 
z
" id="DejaVuSans-56"/>
      </defs>
      <g transform="translate(324.996993 322.182437)scale(0.1 -0.1)">
       <use xlink:href="#DejaVuSans-48"/>
       <use x="63.623047" xlink:href="#DejaVuSans-46"/>
       <use x="95.410156" xlink:href="#DejaVuSans-56"/>
      </g>
     </g>
    </g>
    <g id="xtick_6">
     <g id="line2d_6">
      <g>
       <use style="stroke:#000000;stroke-width:0.8;" x="397.470411" xlink:href="#m29be678a98" y="307.584"/>
      </g>
     </g>
     <g id="text_6">
      <!-- 1.0 -->
      <defs>
       <path d="M 12.40625 8.296875 
L 28.515625 8.296875 
L 28.515625 63.921875 
L 10.984375 60.40625 
L 10.984375 69.390625 
L 28.421875 72.90625 
L 38.28125 72.90625 
L 38.28125 8.296875 
L 54.390625 8.296875 
L 54.390625 0 
L 12.40625 0 
z
" id="DejaVuSans-49"/>
      </defs>
      <g transform="translate(389.518848 322.182437)scale(0.1 -0.1)">
       <use xlink:href="#DejaVuSans-49"/>
       <use x="63.623047" xlink:href="#DejaVuSans-46"/>
       <use x="95.410156" xlink:href="#DejaVuSans-48"/>
      </g>
     </g>
    </g>
    <g id="text_7">
     <!-- x -->
     <defs>
      <path d="M 54.890625 54.6875 
L 35.109375 28.078125 
L 55.90625 0 
L 45.3125 0 
L 29.390625 21.484375 
L 13.484375 0 
L 2.875 0 
L 24.125 28.609375 
L 4.6875 54.6875 
L 15.28125 54.6875 
L 29.78125 35.203125 
L 44.28125 54.6875 
z
" id="DejaVuSans-120"/>
     </defs>
     <g transform="translate(233.200625 335.860562)scale(0.1 -0.1)">
      <use xlink:href="#DejaVuSans-120"/>
     </g>
    </g>
   </g>
   <g id="matplotlib.axis_2">
    <g id="ytick_1">
     <g id="line2d_7">
      <defs>
       <path d="M 0 0 
L -3.5 0 
" id="mb4445a51ce" style="stroke:#000000;stroke-width:0.8;"/>
      </defs>
      <g>
       <use style="stroke:#000000;stroke-width:0.8;" x="57.6" xlink:href="#mb4445a51ce" y="294.607905"/>
      </g>
     </g>
     <g id="text_8">
      <!-- 0.0 -->
      <g transform="translate(34.696875 298.407124)scale(0.1 -0.1)">
       <use xlink:href="#DejaVuSans-48"/>
       <use x="63.623047" xlink:href="#DejaVuSans-46"/>
       <use x="95.410156" xlink:href="#DejaVuSans-48"/>
      </g>
     </g>
    </g>
    <g id="ytick_2">
     <g id="line2d_8">
      <g>
       <use style="stroke:#000000;stroke-width:0.8;" x="57.6" xlink:href="#mb4445a51ce" y="246.679401"/>
      </g>
     </g>
     <g id="text_9">
      <!-- 0.2 -->
      <g transform="translate(34.696875 250.47862)scale(0.1 -0.1)">
       <use xlink:href="#DejaVuSans-48"/>
       <use x="63.623047" xlink:href="#DejaVuSans-46"/>
       <use x="95.410156" xlink:href="#DejaVuSans-50"/>
      </g>
     </g>
    </g>
    <g id="ytick_3">
     <g id="line2d_9">
      <g>
       <use style="stroke:#000000;stroke-width:0.8;" x="57.6" xlink:href="#mb4445a51ce" y="198.750898"/>
      </g>
     </g>
     <g id="text_10">
      <!-- 0.4 -->
      <g transform="translate(34.696875 202.550117)scale(0.1 -0.1)">
       <use xlink:href="#DejaVuSans-48"/>
       <use x="63.623047" xlink:href="#DejaVuSans-46"/>
       <use x="95.410156" xlink:href="#DejaVuSans-52"/>
      </g>
     </g>
    </g>
    <g id="ytick_4">
     <g id="line2d_10">
      <g>
       <use style="stroke:#000000;stroke-width:0.8;" x="57.6" xlink:href="#mb4445a51ce" y="150.822395"/>
      </g>
     </g>
     <g id="text_11">
      <!-- 0.6 -->
      <g transform="translate(34.696875 154.621613)scale(0.1 -0.1)">
       <use xlink:href="#DejaVuSans-48"/>
       <use x="63.623047" xlink:href="#DejaVuSans-46"/>
       <use x="95.410156" xlink:href="#DejaVuSans-54"/>
      </g>
     </g>
    </g>
    <g id="ytick_5">
     <g id="line2d_11">
      <g>
       <use style="stroke:#000000;stroke-width:0.8;" x="57.6" xlink:href="#mb4445a51ce" y="102.893891"/>
      </g>
     </g>
     <g id="text_12">
      <!-- 0.8 -->
      <g transform="translate(34.696875 106.69311)scale(0.1 -0.1)">
       <use xlink:href="#DejaVuSans-48"/>
       <use x="63.623047" xlink:href="#DejaVuSans-46"/>
       <use x="95.410156" xlink:href="#DejaVuSans-56"/>
      </g>
     </g>
    </g>
    <g id="ytick_6">
     <g id="line2d_12">
      <g>
       <use style="stroke:#000000;stroke-width:0.8;" x="57.6" xlink:href="#mb4445a51ce" y="54.965388"/>
      </g>
     </g>
     <g id="text_13">
      <!-- 1.0 -->
      <g transform="translate(34.696875 58.764607)scale(0.1 -0.1)">
       <use xlink:href="#DejaVuSans-49"/>
       <use x="63.623047" xlink:href="#DejaVuSans-46"/>
       <use x="95.410156" xlink:href="#DejaVuSans-48"/>
      </g>
     </g>
    </g>
    <g id="text_14">
     <!-- y -->
     <defs>
      <path d="M 32.171875 -5.078125 
Q 28.375 -14.84375 24.75 -17.8125 
Q 21.140625 -20.796875 15.09375 -20.796875 
L 7.90625 -20.796875 
L 7.90625 -13.28125 
L 13.1875 -13.28125 
Q 16.890625 -13.28125 18.9375 -11.515625 
Q 21 -9.765625 23.484375 -3.21875 
L 25.09375 0.875 
L 2.984375 54.6875 
L 12.5 54.6875 
L 29.59375 11.921875 
L 46.6875 54.6875 
L 56.203125 54.6875 
z
" id="DejaVuSans-121"/>
     </defs>
     <g transform="translate(28.617188 177.487375)rotate(-90)scale(0.1 -0.1)">
      <use xlink:href="#DejaVuSans-121"/>
     </g>
    </g>
   </g>
   <g id="patch_3">
    <path d="M 57.6 307.584 
L 57.6 41.472 
" style="fill:none;stroke:#000000;stroke-linecap:square;stroke-linejoin:miter;stroke-width:0.8;"/>
   </g>
   <g id="patch_4">
    <path d="M 414.72 307.584 
L 414.72 41.472 
" style="fill:none;stroke:#000000;stroke-linecap:square;stroke-linejoin:miter;stroke-width:0.8;"/>
   </g>
   <g id="patch_5">
    <path d="M 57.6 307.584 
L 414.72 307.584 
" style="fill:none;stroke:#000000;stroke-linecap:square;stroke-linejoin:miter;stroke-width:0.8;"/>
   </g>
   <g id="patch_6">
    <path d="M 57.6 41.472 
L 414.72 41.472 
" style="fill:none;stroke:#000000;stroke-linecap:square;stroke-linejoin:miter;stroke-width:0.8;"/>
   </g>
   <g id="text_15">
    <!-- NSGAII-ZDT1 -->
    <defs>
     <path d="M 9.8125 72.90625 
L 23.09375 72.90625 
L 55.421875 11.921875 
L 55.421875 72.90625 
L 64.984375 72.90625 
L 64.984375 0 
L 51.703125 0 
L 19.390625 60.984375 
L 19.390625 0 
L 9.8125 0 
z
" id="DejaVuSans-78"/>
     <path d="M 53.515625 70.515625 
L 53.515625 60.890625 
Q 47.90625 63.578125 42.921875 64.890625 
Q 37.9375 66.21875 33.296875 66.21875 
Q 25.25 66.21875 20.875 63.09375 
Q 16.5 59.96875 16.5 54.203125 
Q 16.5 49.359375 19.40625 46.890625 
Q 22.3125 44.4375 30.421875 42.921875 
L 36.375 41.703125 
Q 47.40625 39.59375 52.65625 34.296875 
Q 57.90625 29 57.90625 20.125 
Q 57.90625 9.515625 50.796875 4.046875 
Q 43.703125 -1.421875 29.984375 -1.421875 
Q 24.8125 -1.421875 18.96875 -0.25 
Q 13.140625 0.921875 6.890625 3.21875 
L 6.890625 13.375 
Q 12.890625 10.015625 18.65625 8.296875 
Q 24.421875 6.59375 29.984375 6.59375 
Q 38.421875 6.59375 43.015625 9.90625 
Q 47.609375 13.234375 47.609375 19.390625 
Q 47.609375 24.75 44.3125 27.78125 
Q 41.015625 30.8125 33.5 32.328125 
L 27.484375 33.5 
Q 16.453125 35.6875 11.515625 40.375 
Q 6.59375 45.0625 6.59375 53.421875 
Q 6.59375 63.09375 13.40625 68.65625 
Q 20.21875 74.21875 32.171875 74.21875 
Q 37.3125 74.21875 42.625 73.28125 
Q 47.953125 72.359375 53.515625 70.515625 
z
" id="DejaVuSans-83"/>
     <path d="M 59.515625 10.40625 
L 59.515625 29.984375 
L 43.40625 29.984375 
L 43.40625 38.09375 
L 69.28125 38.09375 
L 69.28125 6.78125 
Q 63.578125 2.734375 56.6875 0.65625 
Q 49.8125 -1.421875 42 -1.421875 
Q 24.90625 -1.421875 15.25 8.5625 
Q 5.609375 18.5625 5.609375 36.375 
Q 5.609375 54.25 15.25 64.234375 
Q 24.90625 74.21875 42 74.21875 
Q 49.125 74.21875 55.546875 72.453125 
Q 61.96875 70.703125 67.390625 67.28125 
L 67.390625 56.78125 
Q 61.921875 61.421875 55.765625 63.765625 
Q 49.609375 66.109375 42.828125 66.109375 
Q 29.4375 66.109375 22.71875 58.640625 
Q 16.015625 51.171875 16.015625 36.375 
Q 16.015625 21.625 22.71875 14.15625 
Q 29.4375 6.6875 42.828125 6.6875 
Q 48.046875 6.6875 52.140625 7.59375 
Q 56.25 8.5 59.515625 10.40625 
z
" id="DejaVuSans-71"/>
     <path d="M 34.1875 63.1875 
L 20.796875 26.90625 
L 47.609375 26.90625 
z
M 28.609375 72.90625 
L 39.796875 72.90625 
L 67.578125 0 
L 57.328125 0 
L 50.6875 18.703125 
L 17.828125 18.703125 
L 11.1875 0 
L 0.78125 0 
z
" id="DejaVuSans-65"/>
     <path d="M 9.8125 72.90625 
L 19.671875 72.90625 
L 19.671875 0 
L 9.8125 0 
z
" id="DejaVuSans-73"/>
     <path d="M 4.890625 31.390625 
L 31.203125 31.390625 
L 31.203125 23.390625 
L 4.890625 23.390625 
z
" id="DejaVuSans-45"/>
     <path d="M 5.609375 72.90625 
L 62.890625 72.90625 
L 62.890625 65.375 
L 16.796875 8.296875 
L 64.015625 8.296875 
L 64.015625 0 
L 4.5 0 
L 4.5 7.515625 
L 50.59375 64.59375 
L 5.609375 64.59375 
z
" id="DejaVuSans-90"/>
     <path d="M 19.671875 64.796875 
L 19.671875 8.109375 
L 31.59375 8.109375 
Q 46.6875 8.109375 53.6875 14.9375 
Q 60.6875 21.78125 60.6875 36.53125 
Q 60.6875 51.171875 53.6875 57.984375 
Q 46.6875 64.796875 31.59375 64.796875 
z
M 9.8125 72.90625 
L 30.078125 72.90625 
Q 51.265625 72.90625 61.171875 64.09375 
Q 71.09375 55.28125 71.09375 36.53125 
Q 71.09375 17.671875 61.125 8.828125 
Q 51.171875 0 30.078125 0 
L 9.8125 0 
z
" id="DejaVuSans-68"/>
     <path d="M -0.296875 72.90625 
L 61.375 72.90625 
L 61.375 64.59375 
L 35.5 64.59375 
L 35.5 0 
L 25.59375 0 
L 25.59375 64.59375 
L -0.296875 64.59375 
z
" id="DejaVuSans-84"/>
    </defs>
    <g transform="translate(197.191875 35.472)scale(0.12 -0.12)">
     <use xlink:href="#DejaVuSans-78"/>
     <use x="74.804688" xlink:href="#DejaVuSans-83"/>
     <use x="138.28125" xlink:href="#DejaVuSans-71"/>
     <use x="215.771484" xlink:href="#DejaVuSans-65"/>
     <use x="284.179688" xlink:href="#DejaVuSans-73"/>
     <use x="313.671875" xlink:href="#DejaVuSans-73"/>
     <use x="343.164062" xlink:href="#DejaVuSans-45"/>
     <use x="379.248047" xlink:href="#DejaVuSans-90"/>
     <use x="447.753906" xlink:href="#DejaVuSans-68"/>
     <use x="524.755859" xlink:href="#DejaVuSans-84"/>
     <use x="585.839844" xlink:href="#DejaVuSans-49"/>
    </g>
   </g>
  </g>
  <g id="text_16">
   <!-- Pareto front approximation -->
   <defs>
    <path d="M 19.671875 64.796875 
L 19.671875 37.40625 
L 32.078125 37.40625 
Q 38.96875 37.40625 42.71875 40.96875 
Q 46.484375 44.53125 46.484375 51.125 
Q 46.484375 57.671875 42.71875 61.234375 
Q 38.96875 64.796875 32.078125 64.796875 
z
M 9.8125 72.90625 
L 32.078125 72.90625 
Q 44.34375 72.90625 50.609375 67.359375 
Q 56.890625 61.8125 56.890625 51.125 
Q 56.890625 40.328125 50.609375 34.8125 
Q 44.34375 29.296875 32.078125 29.296875 
L 19.671875 29.296875 
L 19.671875 0 
L 9.8125 0 
z
" id="DejaVuSans-80"/>
    <path d="M 34.28125 27.484375 
Q 23.390625 27.484375 19.1875 25 
Q 14.984375 22.515625 14.984375 16.5 
Q 14.984375 11.71875 18.140625 8.90625 
Q 21.296875 6.109375 26.703125 6.109375 
Q 34.1875 6.109375 38.703125 11.40625 
Q 43.21875 16.703125 43.21875 25.484375 
L 43.21875 27.484375 
z
M 52.203125 31.203125 
L 52.203125 0 
L 43.21875 0 
L 43.21875 8.296875 
Q 40.140625 3.328125 35.546875 0.953125 
Q 30.953125 -1.421875 24.3125 -1.421875 
Q 15.921875 -1.421875 10.953125 3.296875 
Q 6 8.015625 6 15.921875 
Q 6 25.140625 12.171875 29.828125 
Q 18.359375 34.515625 30.609375 34.515625 
L 43.21875 34.515625 
L 43.21875 35.40625 
Q 43.21875 41.609375 39.140625 45 
Q 35.0625 48.390625 27.6875 48.390625 
Q 23 48.390625 18.546875 47.265625 
Q 14.109375 46.140625 10.015625 43.890625 
L 10.015625 52.203125 
Q 14.9375 54.109375 19.578125 55.046875 
Q 24.21875 56 28.609375 56 
Q 40.484375 56 46.34375 49.84375 
Q 52.203125 43.703125 52.203125 31.203125 
z
" id="DejaVuSans-97"/>
    <path d="M 41.109375 46.296875 
Q 39.59375 47.171875 37.8125 47.578125 
Q 36.03125 48 33.890625 48 
Q 26.265625 48 22.1875 43.046875 
Q 18.109375 38.09375 18.109375 28.8125 
L 18.109375 0 
L 9.078125 0 
L 9.078125 54.6875 
L 18.109375 54.6875 
L 18.109375 46.1875 
Q 20.953125 51.171875 25.484375 53.578125 
Q 30.03125 56 36.53125 56 
Q 37.453125 56 38.578125 55.875 
Q 39.703125 55.765625 41.0625 55.515625 
z
" id="DejaVuSans-114"/>
    <path d="M 56.203125 29.59375 
L 56.203125 25.203125 
L 14.890625 25.203125 
Q 15.484375 15.921875 20.484375 11.0625 
Q 25.484375 6.203125 34.421875 6.203125 
Q 39.59375 6.203125 44.453125 7.46875 
Q 49.3125 8.734375 54.109375 11.28125 
L 54.109375 2.78125 
Q 49.265625 0.734375 44.1875 -0.34375 
Q 39.109375 -1.421875 33.890625 -1.421875 
Q 20.796875 -1.421875 13.15625 6.1875 
Q 5.515625 13.8125 5.515625 26.8125 
Q 5.515625 40.234375 12.765625 48.109375 
Q 20.015625 56 32.328125 56 
Q 43.359375 56 49.78125 48.890625 
Q 56.203125 41.796875 56.203125 29.59375 
z
M 47.21875 32.234375 
Q 47.125 39.59375 43.09375 43.984375 
Q 39.0625 48.390625 32.421875 48.390625 
Q 24.90625 48.390625 20.390625 44.140625 
Q 15.875 39.890625 15.1875 32.171875 
z
" id="DejaVuSans-101"/>
    <path d="M 18.3125 70.21875 
L 18.3125 54.6875 
L 36.8125 54.6875 
L 36.8125 47.703125 
L 18.3125 47.703125 
L 18.3125 18.015625 
Q 18.3125 11.328125 20.140625 9.421875 
Q 21.96875 7.515625 27.59375 7.515625 
L 36.8125 7.515625 
L 36.8125 0 
L 27.59375 0 
Q 17.1875 0 13.234375 3.875 
Q 9.28125 7.765625 9.28125 18.015625 
L 9.28125 47.703125 
L 2.6875 47.703125 
L 2.6875 54.6875 
L 9.28125 54.6875 
L 9.28125 70.21875 
z
" id="DejaVuSans-116"/>
    <path d="M 30.609375 48.390625 
Q 23.390625 48.390625 19.1875 42.75 
Q 14.984375 37.109375 14.984375 27.296875 
Q 14.984375 17.484375 19.15625 11.84375 
Q 23.34375 6.203125 30.609375 6.203125 
Q 37.796875 6.203125 41.984375 11.859375 
Q 46.1875 17.53125 46.1875 27.296875 
Q 46.1875 37.015625 41.984375 42.703125 
Q 37.796875 48.390625 30.609375 48.390625 
z
M 30.609375 56 
Q 42.328125 56 49.015625 48.375 
Q 55.71875 40.765625 55.71875 27.296875 
Q 55.71875 13.875 49.015625 6.21875 
Q 42.328125 -1.421875 30.609375 -1.421875 
Q 18.84375 -1.421875 12.171875 6.21875 
Q 5.515625 13.875 5.515625 27.296875 
Q 5.515625 40.765625 12.171875 48.375 
Q 18.84375 56 30.609375 56 
z
" id="DejaVuSans-111"/>
    <path id="DejaVuSans-32"/>
    <path d="M 37.109375 75.984375 
L 37.109375 68.5 
L 28.515625 68.5 
Q 23.6875 68.5 21.796875 66.546875 
Q 19.921875 64.59375 19.921875 59.515625 
L 19.921875 54.6875 
L 34.71875 54.6875 
L 34.71875 47.703125 
L 19.921875 47.703125 
L 19.921875 0 
L 10.890625 0 
L 10.890625 47.703125 
L 2.296875 47.703125 
L 2.296875 54.6875 
L 10.890625 54.6875 
L 10.890625 58.5 
Q 10.890625 67.625 15.140625 71.796875 
Q 19.390625 75.984375 28.609375 75.984375 
z
" id="DejaVuSans-102"/>
    <path d="M 54.890625 33.015625 
L 54.890625 0 
L 45.90625 0 
L 45.90625 32.71875 
Q 45.90625 40.484375 42.875 44.328125 
Q 39.84375 48.1875 33.796875 48.1875 
Q 26.515625 48.1875 22.3125 43.546875 
Q 18.109375 38.921875 18.109375 30.90625 
L 18.109375 0 
L 9.078125 0 
L 9.078125 54.6875 
L 18.109375 54.6875 
L 18.109375 46.1875 
Q 21.34375 51.125 25.703125 53.5625 
Q 30.078125 56 35.796875 56 
Q 45.21875 56 50.046875 50.171875 
Q 54.890625 44.34375 54.890625 33.015625 
z
" id="DejaVuSans-110"/>
    <path d="M 18.109375 8.203125 
L 18.109375 -20.796875 
L 9.078125 -20.796875 
L 9.078125 54.6875 
L 18.109375 54.6875 
L 18.109375 46.390625 
Q 20.953125 51.265625 25.265625 53.625 
Q 29.59375 56 35.59375 56 
Q 45.5625 56 51.78125 48.09375 
Q 58.015625 40.1875 58.015625 27.296875 
Q 58.015625 14.40625 51.78125 6.484375 
Q 45.5625 -1.421875 35.59375 -1.421875 
Q 29.59375 -1.421875 25.265625 0.953125 
Q 20.953125 3.328125 18.109375 8.203125 
z
M 48.6875 27.296875 
Q 48.6875 37.203125 44.609375 42.84375 
Q 40.53125 48.484375 33.40625 48.484375 
Q 26.265625 48.484375 22.1875 42.84375 
Q 18.109375 37.203125 18.109375 27.296875 
Q 18.109375 17.390625 22.1875 11.75 
Q 26.265625 6.109375 33.40625 6.109375 
Q 40.53125 6.109375 44.609375 11.75 
Q 48.6875 17.390625 48.6875 27.296875 
z
" id="DejaVuSans-112"/>
    <path d="M 9.421875 54.6875 
L 18.40625 54.6875 
L 18.40625 0 
L 9.421875 0 
z
M 9.421875 75.984375 
L 18.40625 75.984375 
L 18.40625 64.59375 
L 9.421875 64.59375 
z
" id="DejaVuSans-105"/>
    <path d="M 52 44.1875 
Q 55.375 50.25 60.0625 53.125 
Q 64.75 56 71.09375 56 
Q 79.640625 56 84.28125 50.015625 
Q 88.921875 44.046875 88.921875 33.015625 
L 88.921875 0 
L 79.890625 0 
L 79.890625 32.71875 
Q 79.890625 40.578125 77.09375 44.375 
Q 74.3125 48.1875 68.609375 48.1875 
Q 61.625 48.1875 57.5625 43.546875 
Q 53.515625 38.921875 53.515625 30.90625 
L 53.515625 0 
L 44.484375 0 
L 44.484375 32.71875 
Q 44.484375 40.625 41.703125 44.40625 
Q 38.921875 48.1875 33.109375 48.1875 
Q 26.21875 48.1875 22.15625 43.53125 
Q 18.109375 38.875 18.109375 30.90625 
L 18.109375 0 
L 9.078125 0 
L 9.078125 54.6875 
L 18.109375 54.6875 
L 18.109375 46.1875 
Q 21.1875 51.21875 25.484375 53.609375 
Q 29.78125 56 35.6875 56 
Q 41.65625 56 45.828125 52.96875 
Q 50 49.953125 52 44.1875 
z
" id="DejaVuSans-109"/>
   </defs>
   <g transform="translate(121.93625 19.0695)scale(0.16 -0.16)">
    <use xlink:href="#DejaVuSans-80"/>
    <use x="60.240234" xlink:href="#DejaVuSans-97"/>
    <use x="121.519531" xlink:href="#DejaVuSans-114"/>
    <use x="162.601562" xlink:href="#DejaVuSans-101"/>
    <use x="224.125" xlink:href="#DejaVuSans-116"/>
    <use x="263.333984" xlink:href="#DejaVuSans-111"/>
    <use x="324.515625" xlink:href="#DejaVuSans-32"/>
    <use x="356.302734" xlink:href="#DejaVuSans-102"/>
    <use x="391.507812" xlink:href="#DejaVuSans-114"/>
    <use x="432.589844" xlink:href="#DejaVuSans-111"/>
    <use x="493.771484" xlink:href="#DejaVuSans-110"/>
    <use x="557.150391" xlink:href="#DejaVuSans-116"/>
    <use x="596.359375" xlink:href="#DejaVuSans-32"/>
    <use x="628.146484" xlink:href="#DejaVuSans-97"/>
    <use x="689.425781" xlink:href="#DejaVuSans-112"/>
    <use x="752.902344" xlink:href="#DejaVuSans-112"/>
    <use x="816.378906" xlink:href="#DejaVuSans-114"/>
    <use x="857.460938" xlink:href="#DejaVuSans-111"/>
    <use x="918.595703" xlink:href="#DejaVuSans-120"/>
    <use x="977.775391" xlink:href="#DejaVuSans-105"/>
    <use x="1005.558594" xlink:href="#DejaVuSans-109"/>
    <use x="1102.970703" xlink:href="#DejaVuSans-97"/>
    <use x="1164.25" xlink:href="#DejaVuSans-116"/>
    <use x="1203.458984" xlink:href="#DejaVuSans-105"/>
    <use x="1231.242188" xlink:href="#DejaVuSans-111"/>
    <use x="1292.423828" xlink:href="#DejaVuSans-110"/>
   </g>
  </g>
 </g>
 <defs>
  <clipPath id="pae076bc43a">
   <rect height="266.112" width="357.12" x="57.6" y="41.472"/>
  </clipPath>
 </defs>
</svg>
